<svg width="185" height="35" viewBox="0 0 185 35" fill="none" xmlns="http://www.w3.org/2000/svg">
<g clip-path="url(#clip0_377_602)">
<path d="M68.5098 9.35327C68.5098 5.6649 71.6309 2.53166 76.2718 2.53166C80.9127 2.53166 84.0339 5.66118 84.0339 9.35327C84.0339 13.0454 80.9127 16.1749 76.2718 16.1749C71.6309 16.1749 68.5098 13.0454 68.5098 9.35327ZM93.6798 31.8933H71.3225V23.179H88.9497V21.4429H71.3225V17.9073H93.2153V26.5284H75.5881V28.3576H93.6798V31.8933ZM79.7943 9.35327C79.7943 7.52399 78.3712 6.03746 76.2681 6.03746C74.165 6.03746 72.7419 7.52771 72.7419 9.35327C72.7419 11.1788 74.165 12.6691 76.2681 12.6691C78.3712 12.6691 79.7943 11.1825 79.7943 9.35327ZM93.2153 16.4841H88.946V2.37891H93.2153V16.4841Z" fill="#858585"/>
<path d="M123.688 30.2202H97.5886V26.5318H108.505V23.4023C104.548 22.7205 102.504 20.0232 102.504 17.0129C102.504 13.5108 105.288 10.4409 110.605 10.4409C115.922 10.4409 118.705 13.5108 118.705 17.0129C118.705 20.0194 116.665 22.687 112.767 23.4023V26.5318H123.684V30.2202H123.688ZM121.956 9.53926H99.3201V6.00365H108.505V2.25195H112.775V6.00365H121.96V9.53926H121.956ZM114.536 17.0129C114.536 15.2469 113.176 13.9131 110.608 13.9131C108.041 13.9131 106.681 15.2767 106.681 17.0129C106.681 18.749 108.041 20.1126 110.608 20.1126C113.176 20.1126 114.536 18.7155 114.536 17.0129Z" fill="#858585"/>
<path d="M126.511 22.84C129.543 21.9086 131.49 19.1516 131.49 14.5915V7.89655H126.946V4.20446H140.304V7.89282H135.76V14.5915C135.76 19.1479 137.707 21.9086 140.739 22.84V26.655C137.554 25.8503 134.987 23.9875 133.627 21.0443C132.267 23.9875 129.7 25.8503 126.515 26.655V22.84H126.511ZM153.417 31.8299H149.24V16.7002H146.301V31.6436H142.188V2.6248H146.301V13.0118H149.207V2.37891H153.413V31.8337L153.417 31.8299Z" fill="#858585"/>
<path d="M157.63 3.33639H172.382V7.02475H161.9V14.7144C165.578 14.8076 171.022 14.4648 174.856 13.444V17.0392C170.959 18.1569 164.125 18.6822 157.634 18.373V3.33639H157.63ZM181.225 31.5207H160.354V21.0703H164.62V27.8621H181.225V31.5207ZM180.853 23.7081H176.588V2.37891H180.853V10.1282H184.996V13.8166H180.853V23.7081Z" fill="#858585"/>
<path d="M12.8079 19.9712C14.6137 22.825 17.7051 26.2973 22.7585 28.4209C21.7367 26.6736 21.079 24.658 20.8003 22.404C20.8003 22.3854 20.7929 22.3556 20.7892 22.3109C15.1673 18.1307 14.0229 11.8568 13.9635 11.5103L13.956 11.4619C13.3801 8.36214 13.8483 6.10441 15.2379 5.26988C15.6875 4.99791 16.2226 4.88986 16.7799 4.88986C18.4446 4.88986 20.347 5.8399 21.0418 6.29442L21.1161 6.33913C22.2197 7.00229 23.1672 7.73251 23.9809 8.50744C24.3376 8.84647 24.6646 9.19295 24.9693 9.54316C26.2141 10.9701 27.0724 12.4939 27.6595 13.9617C27.9641 14.7218 28.1908 15.4669 28.3654 16.1785C28.3766 16.1375 28.3914 16.0965 28.3989 16.0555C28.3877 16.0965 28.3766 16.1412 28.3654 16.1822C29.0937 19.1478 28.8448 21.4949 28.8225 21.6887C28.7333 22.4152 28.5884 23.0895 28.3877 23.7191C28.3877 23.7229 28.3914 23.7303 28.3952 23.734C28.4026 23.7527 28.41 23.7713 28.4175 23.7899C30.2976 23.246 31.8768 22.4636 33.207 21.5546C33.3073 19.8855 33.3073 15.4259 31.0556 10.8471C31.0221 10.8881 30.9887 10.9291 30.959 10.9701C30.9924 10.9291 31.0221 10.8881 31.0556 10.8471C30.8401 10.4112 30.606 9.97533 30.3496 9.53944C29.6362 8.33234 28.7556 7.13269 27.6595 5.99265C27.3473 5.66479 27.0166 5.34439 26.6674 5.02771C25.7162 4.16709 24.6312 3.35118 23.3901 2.60233C22.9703 2.33781 20.0089 0.523438 16.7539 0.523438C15.5017 0.523438 14.2087 0.791682 12.9974 1.51818C11.2139 2.59116 8.40852 5.41145 9.66813 12.2442C9.73501 12.6429 10.3927 16.1524 12.8079 19.9712Z" fill="#858585"/>
<path d="M24.2003 30.444C23.8325 30.0193 23.4906 29.5722 23.1785 29.1028C22.8367 29.2369 22.4837 29.3636 22.1084 29.4754C20.2283 30.0342 18.363 30.1534 17.1145 30.1534C16.1893 30.1534 15.5985 30.0864 15.5874 30.0864L15.5316 30.0789C15.4648 30.0715 8.61676 29.3561 5.67766 24.2185C4.12079 21.4988 4.04276 18.1271 5.47701 15.4186C5.98978 14.4462 6.65488 13.6191 7.45747 12.9448C7.82532 12.6356 7.89592 12.0954 7.63954 11.6893L6.06409 9.21172C5.8783 8.9174 5.56619 8.76465 5.24664 8.76465C5.02741 8.76465 4.80819 8.83543 4.6224 8.98819C3.32192 10.0425 2.2518 11.3502 1.43807 12.8889C-0.687302 16.9126 -0.397479 22.3855 1.8951 26.3943C5.9006 33.391 14.4207 34.3634 15.1006 34.4304C15.2715 34.4491 16.0184 34.5236 17.1108 34.5236C18.6528 34.5236 20.8897 34.3746 23.2045 33.7077C24.3527 33.3761 25.4042 32.9551 26.3629 32.4484C25.564 31.8523 24.8394 31.1854 24.1966 30.444" fill="#858585"/>
<path d="M53.8847 12.8888C53.0747 11.3576 52.012 10.0536 50.7153 8.99924C50.5258 8.84649 50.3028 8.77197 50.0799 8.77197C49.7566 8.77197 49.4371 8.92845 49.2476 9.2265L47.7613 11.5625C47.4566 12.0431 47.5495 12.6727 47.9768 13.0453C48.7274 13.701 49.3553 14.4945 49.8421 15.4222C51.2726 18.1307 51.1946 21.5024 49.6414 24.2221C46.7023 29.3597 39.858 30.0751 39.7874 30.0825L39.7317 30.09C39.7317 30.09 39.1298 30.157 38.2046 30.157C37.9928 30.157 37.7587 30.1533 37.5172 30.1421C37.5172 30.1421 37.4205 30.1421 37.2533 30.1309C36.6254 30.1011 35.912 30.0341 35.1614 29.9149C34.1916 29.7658 33.0732 29.5274 32.1257 29.1325C31.9102 29.0431 31.7021 28.9462 31.5089 28.8419C31.3231 28.7413 31.1188 28.6146 30.9032 28.473C29.6919 27.672 28.1574 26.3234 27.6669 25.4255C27.6669 25.4255 27.6669 25.4255 27.6669 25.4218C27.3696 24.9002 27.1281 24.3376 26.9349 23.7303C26.7343 23.1007 26.5893 22.4226 26.5002 21.6999C26.5002 21.6738 26.489 21.6142 26.4816 21.5173C26.4742 21.4242 26.463 21.2938 26.4556 21.141C26.4481 20.9846 26.4407 20.7983 26.4407 20.5859C26.4407 20.3736 26.4407 20.1351 26.4481 19.8743C26.4519 19.7439 26.4593 19.6061 26.4667 19.4645C26.4816 19.1814 26.5076 18.8759 26.541 18.5554C26.6191 17.8439 26.7491 17.0428 26.9572 16.1934C26.5039 14.502 25.6901 12.6205 24.267 10.8658C22.0153 15.4446 22.0153 19.9041 22.1157 21.5732C22.138 21.9458 22.164 22.1842 22.1751 22.2438C22.2197 22.6201 22.2792 22.9889 22.3498 23.3503C23.0372 26.953 24.8467 29.7658 27.6669 31.6808C28.0756 31.9602 28.5103 32.2173 28.9599 32.4595C29.9186 32.9661 30.9738 33.3871 32.1183 33.7187C34.4331 34.3856 36.67 34.5346 38.212 34.5346C39.3081 34.5346 40.0512 34.4601 40.2222 34.4415C40.9021 34.3744 49.4259 33.402 53.4277 26.4053C55.724 22.3966 56.0138 16.9236 53.8847 12.9" fill="#858585"/>
<path d="M31.9845 7.92997C32.6459 7.3674 33.3816 6.83464 34.2065 6.33913L34.2808 6.29442C34.9794 5.84362 36.8818 4.88986 38.5427 4.88986C39.1038 4.88986 39.6351 4.99791 40.0884 5.26988C41.4781 6.10441 41.9463 8.36214 41.3703 11.4619L41.3629 11.5103C41.3109 11.8195 40.3968 16.8267 36.2315 20.869C35.8451 21.2453 35.4327 21.6067 34.9905 21.9606C34.8419 22.0799 34.6933 22.1954 34.5372 22.3109C34.0542 22.6722 33.534 23.015 32.984 23.3391C31.8396 24.0097 30.5428 24.5909 29.0714 25.038C29.573 25.6825 30.6803 26.6549 31.6204 27.2808C31.8136 27.4075 31.9994 27.523 32.1703 27.6161C32.3747 27.7279 32.605 27.8285 32.8503 27.9179C33.0026 27.9738 33.1587 28.0297 33.3222 28.0818C34.1619 27.6906 34.9385 27.2659 35.6668 26.8114C36.1089 26.5357 36.5399 26.2488 36.9412 25.9545C39.5162 24.0768 41.3072 21.8824 42.5222 19.9674C44.9374 16.1524 45.5951 12.6391 45.6619 12.2405C46.9216 5.41145 44.1162 2.59116 42.3327 1.51445C41.1177 0.791682 39.8246 0.523438 38.5724 0.523438C35.3175 0.523438 32.3561 2.33781 31.9325 2.60978C30.6915 3.35863 29.6065 4.17454 28.6553 5.03516C29.7291 6.15285 30.6134 7.32269 31.3417 8.50744C31.5461 8.31371 31.7616 8.11997 31.9845 7.92997Z" fill="#858585"/>
</g>
<defs>
<clipPath id="clip0_377_602">
<rect width="185" height="34" fill="white" transform="translate(0 0.523438)"/>
</clipPath>
</defs>
</svg>
