<svg width="224" height="40" viewBox="0 0 224 40" fill="none" xmlns="http://www.w3.org/2000/svg">
<g clip-path="url(#clip0_377_90)">
<path d="M83.7097 10.385C83.7097 6.04675 87.4029 2.36146 92.8942 2.36146C98.3855 2.36146 102.079 6.04237 102.079 10.385C102.079 14.7276 98.3811 18.4085 92.8942 18.4085C87.4072 18.4085 83.7097 14.7276 83.7097 10.385ZM113.492 36.8963H87.0379V26.6467H107.895V24.6047H87.0379V20.4461H112.943V30.5861H92.0852V32.7377H113.492V36.8963ZM97.0622 10.385C97.0622 8.23339 95.3783 6.48495 92.8898 6.48495C90.4013 6.48495 88.7174 8.23777 88.7174 10.385C88.7174 12.5322 90.4013 14.285 92.8898 14.285C95.3783 14.285 97.0622 12.5365 97.0622 10.385ZM112.943 18.7722H107.891V2.1818H112.943V18.7722Z" fill="#231F20"/>
<path d="M149.003 34.9298H118.122V30.5915H131.039V26.9106C126.357 26.1087 123.939 22.9361 123.939 19.3954C123.939 15.2763 127.232 11.6655 133.527 11.6655C139.823 11.6655 143.112 15.2763 143.112 19.3954C143.112 22.9318 140.698 26.0693 136.086 26.9106V30.5915H149.003V34.9298ZM146.955 10.6051H120.171V6.44654H131.039V2.03383H136.091V6.44654H146.959V10.6051H146.955ZM138.175 19.3954C138.175 17.3184 136.566 15.7496 133.527 15.7496C130.489 15.7496 128.88 17.3534 128.88 19.3954C128.88 21.4375 130.489 23.0413 133.527 23.0413C136.566 23.0413 138.175 21.398 138.175 19.3954Z" fill="#231F20"/>
<path d="M152.34 26.2479C155.928 25.1524 158.232 21.9097 158.232 16.5461V8.67159H152.855V4.32899H168.66V8.66721H163.283V16.5461C163.283 21.9053 165.587 25.1524 169.175 26.2479V30.7351C165.407 29.7886 162.369 27.5976 160.76 24.1358C159.151 27.5976 156.113 29.7886 152.345 30.7351V26.2479H152.34ZM184.172 36.8218H179.23V19.0263H175.752V36.6027H170.885V2.47101H175.752V14.6881H179.19V2.1818H184.167V36.8262L184.172 36.8218Z" fill="#231F20"/>
<path d="M189.165 3.30798H206.62V7.64619H194.217V16.6907C198.57 16.8003 205.011 16.3971 209.548 15.1964V19.4251C204.936 20.7397 196.851 21.3576 189.17 20.9939V3.30798H189.165ZM217.084 36.4581H192.388V24.1665H197.435V32.1549H217.084V36.4581ZM216.644 27.2689H211.597V2.1818H216.644V11.2964H221.546V15.6346H216.644V27.2689Z" fill="#231F20"/>
<path d="M22.7066 39.9913C21.4096 39.9913 20.5303 39.9037 20.328 39.8817C19.5235 39.8029 9.43768 38.6592 4.70255 30.4297C1.98546 25.7102 1.64253 19.273 4.16177 14.5448C5.12463 12.735 6.38645 11.1969 7.92525 9.95683C8.46164 9.52301 9.25742 9.64133 9.63113 10.2198L11.4953 13.1338C11.7986 13.6115 11.7151 14.2468 11.2799 14.6106C10.3302 15.3993 9.5432 16.3765 8.93647 17.5202C7.24378 20.706 7.33611 24.6717 9.17828 27.8706C12.656 33.9134 20.7545 34.7548 20.838 34.7635L20.904 34.7723C20.9348 34.7723 24.7554 35.193 28.6244 34.0536C29.3454 33.8433 30.0181 33.5935 30.6424 33.3043C23.9157 30.8723 19.8972 26.4596 17.6153 22.8751C14.7576 18.3879 13.9838 14.2556 13.9002 13.7867C12.4098 5.75446 15.7292 2.43726 17.8396 1.17086C22.9968 -1.90971 29.4466 2.01221 30.1412 2.45479C43.4277 10.4301 41.7658 24.9215 41.6911 25.535C40.8381 32.4016 36.7713 37.0729 29.9214 39.0316C27.1823 39.816 24.5356 39.9913 22.711 39.9913M22.3197 5.1366C21.6558 5.1366 21.0271 5.26368 20.4907 5.58356C18.8464 6.56514 18.2924 9.22065 18.9739 12.8665L18.9827 12.9235C19.075 13.4668 21.3876 26.1397 35.1885 29.2816C35.9052 28.0327 36.3624 26.5735 36.569 24.8952C36.6262 24.4175 37.8441 13.0549 27.4505 6.83683L27.3626 6.77986C26.536 6.24963 24.285 5.12783 22.3197 5.12783" fill="#EF3B3D"/>
<mask id="mask0_377_90" style="mask-type:luminance" maskUnits="userSpaceOnUse" x="22" y="24" width="14" height="10">
<path d="M35.6325 28.4074C35.738 28.2014 35.8215 28.0393 35.8259 28.0261C35.8259 28.0349 35.7688 28.1445 35.6325 28.4074ZM22.6582 28.013L22.2449 28.3285C24.408 30.2566 27.1603 32.0445 30.6424 33.2977C30.6424 33.2977 33.7551 32.1058 35.1884 29.2794C31.2359 28.3811 28.2286 26.6984 25.9424 24.7396L22.6625 28.0086L22.6582 28.013Z" fill="white"/>
</mask>
<g mask="url(#mask0_377_90)">
<path d="M25.8622 18.7581L18.4451 31.0178L32.2026 39.2861L39.6197 27.0264L25.8622 18.7581Z" fill="url(#paint0_linear_377_90)"/>
</g>
<path d="M48.0533 39.9912C49.3503 39.9912 50.2296 39.9036 50.4319 39.8817C51.2364 39.8028 61.3222 38.6591 66.0574 30.4296C68.7744 25.7146 69.1174 19.2774 66.5981 14.5448C65.6397 12.7437 64.3822 11.21 62.8478 9.96992C62.3027 9.52734 61.4937 9.65003 61.1156 10.2416L59.3569 12.9891C58.9964 13.5544 59.1063 14.295 59.6119 14.7332C60.5001 15.5044 61.2431 16.4378 61.819 17.5289C63.5117 20.7147 63.4194 24.6804 61.5816 27.8793C58.1039 33.9221 50.0054 34.7635 49.9219 34.7722L49.8559 34.781C49.8251 34.781 46.0045 35.2017 42.1399 34.0623C41.4189 33.852 40.7462 33.6022 40.1219 33.313C46.8486 30.881 50.8671 26.4683 53.149 22.8838C56.0067 18.3966 56.7805 14.2643 56.8641 13.7954C58.3545 5.76317 55.0351 2.44597 52.9247 1.17956C47.7675 -1.90101 41.3177 2.02091 40.6231 2.4635C27.3366 10.4388 28.9985 24.9302 29.0732 25.5437C29.9262 32.4103 33.993 37.0816 40.8429 39.0403C43.582 39.8247 46.2287 40 48.0533 40M48.4446 5.1453C49.1085 5.1453 49.7372 5.27238 50.2692 5.59227C51.9135 6.57384 52.4675 9.22936 51.786 12.8752L51.7772 12.9322C51.6849 13.4755 49.3723 26.1484 35.5714 29.2903C34.8547 28.0414 34.3975 26.5822 34.1909 24.9039C34.1337 24.4263 32.9159 13.0636 43.3094 6.84553L43.3973 6.78856C44.2239 6.25834 46.4749 5.13654 48.4446 5.13654" fill="#EF3B3D"/>
<mask id="mask1_377_90" style="mask-type:luminance" maskUnits="userSpaceOnUse" x="34" y="24" width="15" height="10">
<path d="M35.1314 28.4073C34.9907 28.1356 34.938 28.0261 34.938 28.0261C34.938 28.0261 35.0215 28.1926 35.1314 28.4073ZM35.5755 29.2837C37.0088 32.1101 40.1216 33.3021 40.1216 33.3021C43.5993 32.0444 46.3515 30.2609 48.5191 28.3328L48.1058 28.0173L44.8259 24.7483C42.5397 26.7027 39.5324 28.3854 35.5799 29.2881" fill="white"/>
</mask>
<g mask="url(#mask1_377_90)">
<path d="M44.9013 18.7622L31.1438 27.0305L38.5632 39.2939L52.3207 31.0256L44.9013 18.7622Z" fill="url(#paint1_linear_377_90)"/>
</g>
<mask id="mask2_377_90" style="mask-type:luminance" maskUnits="userSpaceOnUse" x="29" y="10" width="7" height="12">
<path d="M29.7681 17.0207L33.9888 20.8243L34.2394 21.2099C34.512 18.515 35.3781 16.3108 35.3781 16.3108C34.0591 12.8315 32.2346 10.8771 32.2346 10.8771C30.432 13.9533 29.7681 17.0251 29.7681 17.0251" fill="white"/>
</mask>
<g mask="url(#mask2_377_90)">
<path d="M30.5507 8.93683L26.1877 19.7704L34.6051 23.1379L38.9681 12.3043L30.5507 8.93683Z" fill="url(#paint2_linear_377_90)"/>
</g>
<mask id="mask3_377_90" style="mask-type:luminance" maskUnits="userSpaceOnUse" x="26" y="32" width="10" height="8">
<path d="M26.6287 34.5159L28.04 39.4808C32.8806 38.5912 35.3867 36.5053 35.3867 36.5053C33.1884 35.2214 31.6847 32.785 31.6847 32.785C29.4952 34.0032 26.6331 34.5115 26.6331 34.5115" fill="white"/>
</mask>
<g mask="url(#mask3_377_90)">
<path d="M34.6842 30.421L24.8101 33.3157L27.326 41.8413L37.2002 38.9467L34.6842 30.421Z" fill="url(#paint3_linear_377_90)"/>
</g>
</g>
<defs>
<linearGradient id="paint0_linear_377_90" x1="34.3907" y1="33.1279" x2="22.7322" y2="26.0744" gradientUnits="userSpaceOnUse">
<stop stop-color="#A70E13"/>
<stop offset="1" stop-color="#EF3B3D"/>
</linearGradient>
<linearGradient id="paint1_linear_377_90" x1="36.3588" y1="33.0194" x2="48.0173" y2="25.9659" gradientUnits="userSpaceOnUse">
<stop stop-color="#A70E13"/>
<stop offset="1" stop-color="#EF3B3D"/>
</linearGradient>
<linearGradient id="paint2_linear_377_90" x1="33.8481" y1="12.9857" x2="30.4968" y2="21.3626" gradientUnits="userSpaceOnUse">
<stop stop-color="#A70E13"/>
<stop offset="1" stop-color="#EF3B3D"/>
</linearGradient>
<linearGradient id="paint3_linear_377_90" x1="32.9956" y1="36.3536" x2="26.8576" y2="38.1649" gradientUnits="userSpaceOnUse">
<stop stop-color="#A70E13"/>
<stop offset="1" stop-color="#EF3B3D"/>
</linearGradient>
<clipPath id="clip0_377_90">
<rect width="219.091" height="40" fill="white" transform="translate(2.45459)"/>
</clipPath>
</defs>
</svg>
